<svg version="1.1" id="Layer_1" xmlns="http://www.w3.org/2000/svg" x="0" y="0" viewBox="0 0 332.64 189.83" xml:space="preserve"><style>.st0{fill:#002b50}</style><switch><g><path class="st0" d="M245.36 100.79h-32.83c-.68 0-1.24.54-1.26 1.23-.45 15.55-3.22 30.87-8.24 45.54a1.26 1.26 0 00.79 1.61c6.72 2.27 13.34 5.02 19.66 8.18.18.09.37.13.56.13.36 0 .72-.16.97-.45 13.13-15.59 20.6-34.58 21.62-54.91.02-.35-.11-.68-.35-.93-.24-.26-.57-.4-.92-.4zM159.18 141.11c11.87.38 23.7 2.12 35.17 5.19.11.03.22.04.33.04.53 0 1.01-.33 1.19-.85 4.82-13.98 7.5-28.58 7.95-43.4.01-.34-.12-.67-.36-.92s-.56-.38-.91-.38h-43.34c-.7 0-1.26.56-1.26 1.26v37.8c.01.68.55 1.24 1.23 1.26zM217.41 162.67c-5.27-2.5-10.76-4.7-16.31-6.57-.63-.22-1.31.1-1.57.71-3.59 8.66-8.01 17.06-13.14 24.96-.3.46-.27 1.06.08 1.48.24.3.61.47.98.47.15 0 .31-.03.46-.09 11.09-4.32 21.12-10.68 29.83-18.91.3-.29.44-.7.38-1.12-.07-.4-.34-.75-.71-.93zM192.22 153.89c-.16-.33-.46-.57-.81-.66-10.49-2.73-21.3-4.29-32.14-4.66a1.265 1.265 0 00-1.31 1.26v38.74c0 .35.14.68.39.92.24.22.55.35.87.35h.07c4.34-.24 8.72-.8 13.01-1.65.3-.06.57-.23.75-.47 7.81-10.1 14.27-21.12 19.19-32.78.15-.34.14-.72-.02-1.05zM105.39 148.53c.15-.3.17-.65.06-.97a154.285 154.285 0 01-8.24-45.54c-.02-.68-.58-1.23-1.26-1.23H63.12c-.35 0-.68.14-.91.39-.24.25-.36.59-.35.93 1.02 20.33 8.49 39.32 21.62 54.91a1.274 1.274 0 001.53.32c6.32-3.15 12.93-5.91 19.66-8.18.31-.1.57-.33.72-.63zM113.8 146.35c.11 0 .22-.01.33-.04a155.42 155.42 0 0135.17-5.19 1.26 1.26 0 001.22-1.26v-37.8c0-.7-.56-1.26-1.26-1.26h-43.34c-.34 0-.67.14-.91.38s-.37.58-.36.92c.46 14.82 3.13 29.43 7.95 43.4.19.52.68.85 1.2.85zM108.95 156.82c-.25-.61-.94-.93-1.57-.71-5.55 1.86-11.04 4.07-16.31 6.57-.38.18-.64.53-.71.94-.07.41.08.83.38 1.12 8.7 8.23 18.74 14.6 29.83 18.91a1.25 1.25 0 001.44-.38c.35-.42.38-1.02.08-1.48-5.13-7.91-9.55-16.31-13.14-24.97zM149.26 189.83c.32 0 .63-.12.87-.35.25-.24.39-.57.39-.92v-38.74c0-.34-.14-.67-.39-.91s-.58-.37-.92-.35c-10.84.37-21.65 1.94-32.14 4.66-.36.09-.65.33-.81.66-.16.33-.17.71-.03 1.05a147.752 147.752 0 0019.19 32.78c.19.24.45.41.75.47 4.29.85 8.67 1.41 13.01 1.65h.08z"/><g><path class="st0" d="M292.53 75.42c-1.01 0-1.84-.82-1.84-1.84V58.12c-7.73.91-13.74 7.49-13.74 15.46 0 8.59 6.99 15.58 15.58 15.58s15.58-6.99 15.58-15.58c0-7.97-6.02-14.55-13.74-15.46v15.46c0 1.02-.82 1.84-1.84 1.84z"/><path class="st0" d="M287.39 18.54v56.02c0 2.84 2.31 5.14 5.14 5.14s5.14-2.31 5.14-5.14V12.97l-10.28 5.57zM247.34 58.14H88.37c-15.64 0-28.32 12.68-28.32 28.32v1.42c0 .7.57 1.26 1.26 1.26h186.02c.7 0 1.26-.57 1.26-1.26V59.4c.01-.69-.56-1.26-1.25-1.26z"/><path class="st0" d="M332.6.99c-.14-.56-.7-.99-1.27-.99H151.6C105.94 0 61 11.38 20.85 33.11L.69 44.02c-.53.29-.8.89-.65 1.48.14.56.7.99 1.27.99h50.26c.05 0 .09 0 .14-.01.13-.01.27-.02.41-.02H221.6c18.85 0 37.4-4.68 54-13.62 23.98-12.92 56.34-30.37 56.34-30.37.52-.27.8-.91.66-1.48z"/></g></g></switch></svg>